<?xml version="1.0" standalone="no"?>
<!DOCTYPE svg PUBLIC "-//W3C//DTD SVG 20010904//EN"
 "http://www.w3.org/TR/2001/REC-SVG-20010904/DTD/svg10.dtd">
<svg version="1.0" xmlns="http://www.w3.org/2000/svg"
 width="1280.000000pt" height="945.000000pt" viewBox="0 0 1280.000000 945.000000"
 preserveAspectRatio="xMidYMid meet">
<metadata>
Created by potrace 1.15, written by Peter Selinger 2001-2017
</metadata>
<g transform="translate(0.000000,945.000000) scale(0.100000,-0.100000)"
fill="#000000" stroke="none">
<path d="M9499 9382 c-31 -37 -181 -215 -334 -397 -1091 -1294 -2177 -2616
-3585 -4365 -746 -926 -1002 -1242 -1272 -1568 -442 -532 -664 -762 -738 -762
-31 0 -102 71 -195 195 -164 218 -370 557 -875 1440 -488 854 -655 1128 -752
1239 l-35 40 -92 -34 c-319 -115 -692 -349 -1061 -666 -187 -161 -560 -539
-560 -567 0 -40 577 -820 1199 -1622 761 -981 1385 -1736 1670 -2024 124 -125
276 -210 469 -263 105 -29 347 -31 472 -5 102 22 319 93 412 136 77 35 94 55
378 416 498 637 740 938 1100 1370 1848 2220 3966 4322 6242 6193 211 173 723
584 801 642 25 19 47 38 47 43 0 4 -15 7 -33 7 -55 0 -343 20 -517 36 -1030
93 -1937 289 -2670 578 -10 4 -33 -16 -71 -62z"/>
</g>
</svg>
