<svg enable-background="new 0 0 24 24" height="512" viewBox="0 0 24 24" width="512" xmlns="http://www.w3.org/2000/svg"><path d="m13.44 1.59-9.08 4.58-3.61-1.75 8.92-4.34c.2-.1.44-.1.65 0z"/><path d="m19.25 4.42-9.24 4.51-3.46-1.68-.5-.25 9.09-4.58.5.25z"/><path d="m9.26 15.4c-.17.67-.26 1.38-.26 2.1s.09 1.41.26 2.08v.14l-8.85-4.55c-.25-.13-.41-.39-.41-.67v-8.78l3.75 1.82v3.2c0 .41.34.75.75.75s.75-.34.75-.75v-2.46l.5.24 3.52 1.71z"/><path d="m20.01 9.38c-.79-.25-1.64-.38-2.51-.38-2.74 0-5.18 1.3-6.73 3.32v-2.1l9.23-4.49c.01.84.01 2.48.01 3.65z"/><path d="m17.5 11c-3.58 0-6.5 2.92-6.5 6.5s2.92 6.5 6.5 6.5 6.5-2.92 6.5-6.5-2.92-6.5-6.5-6.5zm2.75 7.25h-2v2c0 .41-.34.75-.75.75s-.75-.34-.75-.75v-2h-2c-.41 0-.75-.34-.75-.75s.34-.75.75-.75h2v-2c0-.41.34-.75.75-.75s.75.34.75.75v2h2c.41 0 .75.34.75.75s-.34.75-.75.75z"/></svg>